<?xml version="1.0" encoding="utf-8" ?>
<svg xmlns="http://www.w3.org/2000/svg" xmlns:xlink="http://www.w3.org/1999/xlink" width="1024" height="1024">
	<clipPath id="cl_3">
		<rect width="1024" height="1024"/>
	</clipPath>
	<g clip-path="url(#cl_3)">
		<path fill="white" d="M-0 -0L1024 0L1024 1024L-0 1024L0 -0Z"/>
		<path d="M535.195 22.7415C569.027 23.3062 604.41 26.9636 636.951 36.5254C654.439 41.6639 671.789 47.5912 688.25 55.4917C740.419 80.5305 781.801 122.248 809.37 172.893C836.03 221.867 851.908 277.217 851.437 333.202C851.272 352.916 847.255 372.988 850.564 392.599C853.453 409.722 861.726 425.782 867.933 441.905C875.284 460.998 881.807 480.712 884.874 501C889.547 531.91 886.204 563.622 877.297 593.484C862.361 643.565 834.608 687.138 811.01 733.267L762.289 837.021C741.326 878.051 711.854 916.814 678.175 948.23C662.95 962.43 647.086 976.632 628.635 986.553C620.067 991.16 610.905 994.224 601.52 996.673C561.458 1007.13 518.331 1000.92 479.241 989.144L462.704 983.946C415.057 967.778 369.797 942.206 330.8 910.44C306.146 890.357 283.635 867.675 262.719 843.767C249.253 828.375 236.395 812.73 224.485 796.105C210.378 776.411 196.274 756.04 185.606 734.238C175.951 714.507 168.826 692.458 174.615 670.559C177.443 659.859 181.872 649.718 185.357 639.25C186.854 634.753 196.73 586.072 196.456 585.123C196.284 584.524 187.374 576.305 186.143 574.776C178.373 565.129 171.843 554.145 166.363 543.056C156.874 523.851 149.533 503.872 144.311 483.098C137.559 456.237 133.868 426.599 142.994 399.827C148.524 383.605 160.018 370.448 175.329 362.837L175.267 360.929C174.952 347.892 176.28 334.986 177.809 322.064C183.449 274.386 197.933 228.647 221.866 187.025C232.769 168.063 245.623 149.823 260.771 133.985C302.672 90.1787 355.232 63.0329 412.409 44.5574C439.267 35.8785 466.433 28.9945 494.478 25.4336C508.07 23.7077 521.51 23.0449 535.195 22.7415Z"/>
		<path fill="white" d="M533.081 35.742L584.703 38.9974C660.431 49.2774 726.994 79.4515 774.043 141.496C814.032 194.23 838.732 263.224 839.008 329.602C839.101 351.948 834.287 375.262 838.879 397.33C841.657 410.684 847.368 423.533 852.33 436.209C858.695 452.467 864.562 469.001 869.164 485.848C872.037 496.365 874.729 507.232 875.371 518.141C876.082 530.232 874.727 541.835 873.067 553.766C869.612 578.594 862.388 603.078 852.899 626.244C845.469 644.381 835.583 661.662 826.32 678.913L793.32 741.951L767.679 798.031C754.649 826.392 739.816 853.907 721.881 879.505C699.672 911.204 671.268 941.078 640.317 964.313C608.526 988.179 568.523 992.689 530.066 987.22C462.795 977.654 396.992 946.568 343.824 904.642C304.589 873.703 269.798 835.88 239.89 795.909L219.688 766.991C212.227 755.862 205.289 744.526 199.136 732.621C190.483 715.882 182.247 696.734 186.165 677.473C188.73 664.86 194.371 652.834 198.012 640.503C200.21 633.059 201.376 625.349 202.821 617.735L207.703 590.606L213.5 592.352C217.146 593.352 220.646 593.705 224.398 593.202C231.246 592.283 236.622 588.913 240.75 583.477C249.466 571.997 250.135 555.752 248.23 541.977C245.981 554.278 242.675 571.339 234.282 581.025C231.919 583.751 229.703 585.261 226 585.341C218.656 585.498 211.524 580.872 206.311 576.037C193.96 564.58 185.191 549.834 177.852 534.828C169.393 517.529 162.829 499.616 157.899 481C154.533 468.294 151.606 455.113 151.096 441.943C150.311 421.676 152.876 398.91 167.373 383.491C174.18 376.252 183.856 370.711 193.969 370.479C219.684 369.889 236.529 398.063 246.623 418.03C250.474 425.647 254.125 435.827 260.48 441.587C266.182 446.755 272.994 447.959 280.394 447.563C306.977 446.14 306.311 405.231 309.347 386.445C310.666 378.282 312.998 370.283 316.21 362.666C320.563 352.345 326.743 343.027 334.069 334.566L349.863 317.728C362.225 303.729 367.39 288.844 363.636 270.264C361.487 259.631 358.363 249.713 357.766 238.75C356.485 215.216 363.551 193.6 377.315 174.58C382.253 167.756 388.168 161.469 393.979 155.383L417.575 131.19C413.537 133.133 409.729 136.385 406.135 139.062C391.21 150.181 377.543 161.909 366.939 177.396C353.06 197.666 347.757 223.863 351.347 248.077C352.566 256.306 355.215 264.148 356.682 272.289C357.636 277.583 358.2 284.027 357.146 289.31C353.486 307.668 335.223 321.095 324.001 335.11C315.719 345.453 309.593 356.791 305.701 369.486C303.628 376.248 302.239 383.347 301.286 390.348C299.797 401.288 299.208 412.711 296.094 423.348C294.974 427.174 293.622 431.164 291.233 434.404C288.825 437.669 284.743 439.835 280.75 440.366C259.138 443.241 255.418 414.028 248.579 399.5C243.026 387.706 235.98 376.998 225.655 368.838C214.763 360.229 201.465 357.387 187.845 358.93C191.442 279.713 216.141 199.16 272.019 140.885C309.632 101.658 357.554 77.0452 408.416 59.521C436.517 49.8386 465.984 42.034 495.5 38.1801C508.048 36.5418 520.452 36.0086 533.081 35.742Z"/>
		<path d="M414.306 388.18C426.15 387.152 436.489 389.027 446.786 395.103L413.52 395.362C403.74 395.72 393.844 398.745 384.513 401.504C393.022 393.703 402.956 389.646 414.306 388.18Z"/>
		<path d="M424.013 407.694C436.825 406.938 446.263 409.983 456.091 418.186L445.913 415.011C428.639 410.77 412.22 415.388 397.368 424.378L376.79 440.857C378.738 436.493 380.767 432.24 383.75 428.472C393.441 416.229 408.793 409.415 424.013 407.694Z"/>
		<path d="M801.259 411.166L807.381 411.076C816.597 411.746 826.774 417.888 832.731 424.774C826.749 422.176 821.184 417.961 814.749 416.566L814 416.413C806.25 414.797 799.359 417.502 792.169 420.025C785.349 422.418 778.578 424.852 771.362 425.732C764.365 426.585 757.479 425.618 750.621 424.26C738.864 421.463 727.562 416.445 716.741 411.148C721.689 411.682 726.746 413.187 731.606 414.293C744.41 417.205 758.289 420.114 771.479 418.366C781.585 417.026 791.071 412.604 801.259 411.166Z"/>
		<path d="M456.969 398.965C477.023 406.909 498.987 411.239 520.549 410.518C535.453 410.02 549.93 408.537 564.914 409.192L558.125 411.229C545.602 415.017 532.791 417.311 519.715 418.046C497.673 419.285 473.726 413.909 456.969 398.965Z"/>
		<path d="M600.759 471.62C601.784 471.5 602.727 471.598 603.75 471.674C597.694 476.217 591.425 479.184 586.323 485.063C581.636 490.462 578.055 498.178 578.633 505.452C579.882 521.194 594.015 525.515 604.4 534.372L597.602 533.358C591.861 532.094 586.24 530.292 581.211 527.181C575.145 523.428 570.225 517.976 568.75 510.8C567.141 502.971 569.858 494.246 574.426 487.857C581.009 478.651 589.735 473.524 600.759 471.62Z"/>
		<path d="M558.72 211.696C576.538 209.879 596.779 214.172 613.877 218.955C628.656 223.09 642.446 227.755 657.874 228.798C668.813 229.538 680.542 227.274 691.438 226.178C701.518 225.164 711.495 224.997 721.618 225.191C725.859 225.272 731.065 224.838 735.16 225.92L723.386 228.018L692.75 232.663C681.095 234.375 669.344 236.252 657.523 235.778C635.928 234.913 615.431 226.151 594.641 220.942C579.109 217.051 563.564 215.244 547.766 212.995L558.72 211.696Z"/>
		<path d="M336.259 535.114L335.652 574.028C336.371 600.936 339.253 627.63 347.048 653.5C353.438 674.71 362.688 694.583 373.291 713.978L395.068 751.5L394.75 752.072L393.541 750.656L362.864 707.618C341.307 670.744 330.495 627.853 330.476 585.25C330.469 568.421 331.969 551.423 336.259 535.114Z"/>
		<path d="M567.245 465.75C567.656 467.598 567.053 469.59 566.659 471.41C564.982 479.14 561.194 486.598 556.732 493.072C542.023 514.414 520.361 525.095 498.243 536.935C484.991 544.028 471.404 551.201 458.777 559.35C452.965 563.1 447.538 567.174 443.415 572.815C430.784 590.095 433.101 617.098 435.865 637.214L437.52 647.75C437.872 649.658 438.659 651.794 438.25 653.713L436.969 650.041L432.465 635.587C425.628 610.102 423.319 580.74 444.431 561.277C451.393 554.859 459.711 550.391 467.887 545.74L504.862 525.09C516.298 518.647 527.611 512.128 537.626 503.543C549.706 493.187 559.342 479.432 567.245 465.75Z"/>
		<path d="M546.176 245.214C559.744 244.975 573.565 247.579 586.5 251.524C608.01 258.086 628.464 267.686 651.256 269.366C661.402 270.113 671.157 269.635 681.192 267.91C696.526 265.275 711.189 260.503 726.764 258.964C746.299 257.034 761.558 260.841 776.905 273.422C769.478 270.45 762.232 267.784 754.387 266.159C730.235 262.169 708.34 270.192 685.003 274.483C673.623 276.575 662.365 277.386 650.808 276.634C624.42 274.916 600.99 262.731 576 255.629C556.313 250.034 536.256 249.608 515.979 250.411C525.999 247.451 535.769 245.801 546.176 245.214Z"/>
		<path d="M754.036 318.207C760.738 317.683 767.653 317.896 774.357 318.341C787.904 319.24 802.253 321.507 813.25 330.12C820.967 336.164 828.733 346.377 829.63 356.452C829.819 358.575 829.587 359.756 828.25 361.41C826.529 360.795 824.992 359.504 823.542 358.407C818.512 354.602 814.157 349.771 809.723 345.302C807.306 343.126 804.915 341.012 802.173 339.25C793.545 333.704 785.007 336.19 775.764 338.628C767.671 340.762 759.694 343.505 751.509 345.254C744.977 346.649 737.979 347.359 732.155 343.363C729.908 341.821 728.053 339.567 727.602 336.802C727.093 333.677 728.351 329.781 730.351 327.387C736.41 320.134 745.174 318.932 754.036 318.207Z"/>
		<path d="M509.538 306.216C526.869 305.717 546.669 306.824 563 312.99C567.615 314.732 571.843 317.183 573.834 321.944C574.816 324.295 574.838 327.229 573.739 329.549C572.447 332.276 569.861 334.277 567.047 335.252C554.775 339.505 543.161 332.913 532.45 327.888C512.395 318.48 485.837 324.081 465.878 331.251C457.4 334.403 449.218 338.568 441.486 343.245L427.65 352.358C424.59 354.479 420.918 357.568 417.25 358.493C415.74 358.873 415.06 358.754 413.75 357.986C413.588 357.439 413.451 357.112 413.478 356.5C413.632 353.083 418.231 347.903 420.432 345.459C443.157 320.233 476.236 308 509.538 306.216Z"/>
		<path d="M746.808 360.204L747.015 360.157C762.825 358.857 786.312 361.655 797.401 374.163C801.891 379.228 804.264 385.857 809.005 390.874C814.229 396.403 820.619 400.152 826.844 404.407C813.124 402.236 801.358 394.917 787.426 393.659C770.061 394.436 752.885 395.586 735.494 394.574C731.409 394.336 727.262 393.918 723.232 393.2C720.011 392.627 716.933 391.38 713.618 391.449C709.17 391.542 704.911 393.242 700.728 394.632C702.489 388.432 707.492 382.018 711.545 377.049C720.541 366.021 733.062 361.579 746.808 360.204Z"/>
		<path fill="white" d="M752.859 369.25L755 369.431C756.075 369.694 757.288 370.65 757.655 371.75C758.043 372.913 757.823 374.234 757.125 375.25C756.245 376.53 755.14 376.842 753.75 377.272L752 377.104C750.703 376.813 749.52 376.004 748.995 374.75C748.355 373.222 748.656 372.498 749.25 371.036C750.53 369.917 751.197 369.617 752.859 369.25Z"/>
		<path fill="white" d="M726.819 374.75L728.319 374.645C729.336 379.122 730.361 382.111 732.752 386.043L721.61 385.604L714.14 384.84C717.874 380.395 721.701 377.452 726.819 374.75Z"/>
		<path fill="white" d="M767.217 369.81C775.673 370.633 785.515 373.134 791.105 380.018C792.229 381.401 794.546 384.481 794.343 386.315L792.25 386.388C783.844 385.571 774.72 386.471 766.233 386.652C766.985 384.849 767.971 382.879 768.315 380.954C768.927 377.532 767.783 373.216 767.217 369.81Z"/>
		<path d="M183.957 390.579C193.74 389.687 202.041 392.6 209.547 398.807C225.414 411.929 233.645 432.642 239.179 451.917C241.858 461.244 244.138 470.6 245.024 480.284C243.902 481.443 242.305 482.167 240.943 483.04C235.402 486.59 230.455 492.503 229.207 499.078C227.256 509.359 236.397 516.2 241.592 523.728C237.671 523.155 234.807 522.534 231.421 520.323C230.588 519.779 229.706 518.805 228.75 518.516C226.891 517.956 224.701 517.945 222.773 517.587C217.803 516.666 213.544 515.137 209.5 512.035C201.684 506.041 198.111 496.59 196.979 487.11L197.116 484.005C198.501 466.148 214.31 450.204 227.276 439.124C223.368 429.897 219.285 421.182 213.383 413.01C208.213 405.851 199.518 398.387 190.5 397.176C185.513 396.506 180.831 397.47 176.834 400.589C164.688 410.066 163.374 428.419 161.565 442.447L161.39 441.91C160.831 439.63 161.104 436.584 161.11 434.205C161.138 423.237 162.623 412.171 168.115 402.504C171.792 396.032 176.807 392.554 183.957 390.579Z"/>
		<path fill="white" d="M230.004 445.524L235.63 463.506C235.926 464.573 239.372 476.002 239.149 476.501C238.93 476.99 234.826 479.179 234.023 479.717C230.325 482.194 227.535 485.051 225.373 488.955C221.281 496.344 221.07 502.978 223.344 510.866L217.245 508.657C215.878 507.781 214.631 506.822 213.449 505.71C208.319 500.884 204.559 493.357 204.421 486.256C204.117 470.631 219.995 456.093 230.004 445.524Z"/>
		<path d="M515.344 352.719C527.304 351.981 540.334 354.11 551.103 359.429C561.346 364.488 573.134 372.624 576.96 384C576.827 385.338 576.82 386.274 575.887 387.334C569.233 387.544 562.685 389.309 556.019 389.777C540.63 390.857 525.318 388.973 510.122 386.748C488.536 383.629 466.316 384.026 444.532 383.575C448.365 379.458 452.197 375.051 456.54 371.466C473.207 357.706 494.459 354.076 515.344 352.719Z"/>
		<path fill="white" d="M520.167 363.25C522.113 362.932 523.366 363.011 525.25 363.595C526.292 364.588 526.953 364.947 526.987 366.5C527.027 368.334 525.951 369.182 524.75 370.296C524.232 370.485 523.751 370.687 523.192 370.75C521.959 370.888 520.34 370.463 519.414 369.598C518.157 368.424 518 367.652 517.854 366C518.436 364.52 518.926 364.141 520.167 363.25Z"/>
		<path fill="white" d="M494.967 364.25L495.973 364.523C496.757 368.979 496.597 373.113 497.819 377.624L462.375 377.031L460.25 376.766C461.141 375.592 463.917 374.814 465.365 374.171C475.194 369.804 484.359 366.317 494.967 364.25Z"/>
		<path fill="white" d="M534.422 363.75L534.926 363.616C536.655 363.362 539.188 364.199 540.879 364.672C552.63 367.962 560.453 375.873 569.71 383.25C568.815 383.707 567.618 383.57 566.617 383.6C554.664 384.294 543.502 381.987 531.763 380.265C535.307 374.016 536.263 370.86 534.422 363.75Z"/>
		<path d="M769.95 726.217C768.964 731.765 766.08 737.772 764.072 743.052L735.987 808.554C723.225 836.399 707.021 866.403 683.608 886.679C673.111 895.768 660.501 902.873 647.5 907.663C611.703 920.851 566.629 918.708 532.129 902.625C490.496 883.218 463.765 843.286 443.573 803.597C434.593 785.946 426.564 767.919 419.81 749.299L417.449 741.664L434.626 773C456.548 814.986 480.426 862.948 521.817 888.848C551.867 907.651 594.816 913.212 629.188 905.181C652.5 899.733 673.164 888.161 689.509 870.5C706.518 852.122 717.616 827.376 728.666 805.124L750.855 761.224C756.921 749.399 762.904 737.495 769.95 726.217Z"/>
		<path d="M719.5 357.579C720.221 357.548 720.843 357.646 721.554 357.75L716.782 360.42C709.947 365.168 705.377 373.077 701.905 380.43C700.285 383.861 698.62 387.346 698.056 391.133L697.938 392C697.166 397.441 698.122 402.412 699.183 407.73C703.305 428.387 713.64 448.683 726.46 465.254C732.742 473.375 740.617 480.055 746.569 488.482C748.231 490.835 749.676 493.408 750.656 496.122C751.732 499.098 752.223 503.495 754.202 505.921C760.617 513.784 767.022 521.888 773.949 529.295C787.071 543.325 804.578 555.089 807.291 575.541C810.513 599.833 796.608 622.528 782.368 640.974C789.263 624.554 798.082 608.534 800.955 590.778C802.169 583.274 801.712 575.69 798.46 568.75C795.195 561.78 789.515 556.718 784.273 551.248L770.872 536.519C764.186 528.746 758.087 520.401 752.127 512.062C750.264 516.354 749.299 520.173 746.52 524.104C739.789 533.627 730.915 537.937 719.686 539.864C717.765 540.075 716.192 540.191 714.694 541.5C707.322 547.941 701.035 554.118 691.047 556.121C680.506 558.235 666.838 556.025 657.75 550.004C652.052 546.229 650.697 542.683 649.367 536.231C635.811 525.158 633.26 535.416 619.742 533.658L618.75 533.524C612.473 532.715 608.713 529.924 604.022 525.99C603.304 525.389 602.171 524.121 601.403 523.776C599.709 523.016 596.079 523.182 594.155 523.036C598.821 518.888 604.302 516.099 610.327 514.479C621.012 511.606 630.183 515.495 639.314 520.814C646.186 524.817 655.234 530.299 657.324 538.583C658.077 541.566 658.044 542.062 660.799 543.75C665.882 546.864 672.67 548.341 678.564 548.537C681.922 548.649 685.655 548.82 688.938 548.031C702.321 544.812 713.471 532.405 723.133 523.206C725.992 520.483 728.453 517.609 732.441 516.704C733.121 517.491 733.3 517.621 733.405 518.664C733.899 523.591 726.423 530.022 723.473 533.646C729.412 530.495 735.156 524.928 738.718 519.216C742.666 512.887 744.565 504.896 741.682 497.714C738.966 490.946 731.39 485.333 726.634 479.807C711.132 461.8 698.689 439.214 693.455 415.931C690.524 402.89 689.293 389.497 696.903 377.747C701.843 370.118 710.248 359.492 719.5 357.579Z"/>
		<path d="M779.197 576.208C780.087 576.996 780.983 577.797 781.731 578.725C783.491 580.907 784.17 583.845 783.821 586.614C782.697 595.529 774.853 596.244 770.25 602.105C765.782 607.793 762.752 615.437 759.54 621.93C753.388 634.366 747.462 646.903 743.483 660.229C740.54 670.082 739.3 680.275 736.704 690.191C728.82 720.3 713.585 748.546 687.961 767.08C660.813 786.718 624.096 790.741 591.709 785.276C552.958 778.737 523.175 756.105 500.782 724.747C482.332 698.272 469.708 666.092 462.868 634.67C461.07 626.408 458.989 617.49 460.368 609.02C461.744 600.568 465.107 592.775 472.347 587.75C488.277 576.694 507.727 586.492 524.102 590.925C536.024 594.153 548.105 597.198 560.262 599.403C582.244 603.389 604.408 605.897 626.673 607.532C664.818 610.332 703.313 610.091 740.729 601.391C750.877 599.032 763.598 595.894 772.159 589.75C777.174 586.151 778.358 581.977 779.197 576.208Z"/>
		<path fill="white" d="M482.82 660.658C497.891 679.248 514.506 696.372 534.262 710.035C551.678 722.078 571.505 733.004 592.672 736.279C601.978 737.718 611.594 737.659 620.988 737.839C632.047 738.051 643.224 738.344 654.147 736.312C682.312 731.076 703.643 713.975 719.958 691.095C723.643 685.928 726.401 680.163 730.003 674.939L720.538 702.651L717.322 710.276C705.584 736.068 687.349 757.422 660.237 767.469C630.466 778.502 591.412 776.703 562.548 763.302C532.59 749.395 510.894 723.004 496.444 693.862C491.161 683.208 486.926 671.816 482.82 660.658Z"/>
		<path fill="white" d="M492.279 594.555C500.676 594.146 510.962 599.394 519.084 601.759L542.555 607.657C577.86 615.34 613.434 619.829 649.559 620.757C671.125 621.311 692.981 621.086 714.395 618.24C723.861 616.981 733.1 614.89 742.401 612.779C743.268 623.641 741.572 631.518 735.449 640.554C733.492 638.514 731.362 637.175 728.977 635.698C729.074 637.701 729.277 639.835 728.965 641.821C728.325 645.889 725.531 647.999 722.336 650.207C718.781 652.061 715.142 653.273 711.107 653.522C702.684 654.041 695.929 653.439 689.436 647.621L688.915 647.149C687.278 650.036 686.006 652.372 683.019 654.09C677.587 657.216 671.362 657.528 665.25 657.745L644.88 657.739C633.685 657.506 621.663 657.711 610.75 654.995C606.078 653.832 600.84 652.16 597.476 648.526C595.981 646.91 594.86 644.765 593.734 642.879C592.737 644.044 591.697 645.339 590.358 646.127C582.606 650.686 568.573 649.827 560.25 647.453C552.915 645.361 547.634 642.29 543.779 635.476L543.419 634.827C541.602 635.275 540.022 636.33 538.25 636.909C531.714 639.045 523.957 637.701 518.022 634.451C514.24 632.379 511.494 629.481 510.31 625.303C510.033 624.329 509.921 623.645 509.25 622.86C507.075 623.668 504.71 623.331 502.471 622.896C495.917 621.624 488.645 617.48 484.939 611.838C483.2 609.188 482.644 606.439 483.337 603.331C483.96 600.542 485.821 597.726 488.279 596.214C489.492 595.468 490.939 595.022 492.279 594.555Z"/>
	</g>
</svg>
